<svg xmlns="http://www.w3.org/2000/svg" viewBox="0 0 1200 620">
<defs><linearGradient id="g" x1="0" x2="1"><stop stop-color="#247bff"/><stop offset="1" stop-color="#ff354f"/></linearGradient><style>.t{font-family:Arial,sans-serif;fill:#f5f7fb}.m{font-family:monospace;fill:#a8b4c8}.chip{fill:#101c31;stroke:#247bff;stroke-opacity:.35}.chipr{fill:#161625;stroke:#ff354f;stroke-opacity:.35}</style></defs>
<rect width="1200" height="620" rx="32" fill="#070b16"/><rect x="1" y="1" width="1198" height="618" rx="31" fill="none" stroke="url(#g)" stroke-opacity=".7"/>
<text x="50" y="60" class="m" font-size="16">03 / STACK · ENGINEERING TOOLBOX</text><text x="50" y="108" class="t" font-size="36" font-weight="800">THE STACK I USE</text>
<g fill="none" stroke="#247bff" stroke-opacity=".25">
<ellipse cx="600" cy="310" rx="480" ry="105" transform="rotate(-8 600 310)"/><ellipse cx="600" cy="310" rx="390" ry="82" transform="rotate(12 600 310)"/><ellipse cx="600" cy="310" rx="300" ry="64" transform="rotate(-18 600 310)"/></g>
<g class="m" font-size="14">
<rect x="75" y="160" width="220" height="42" rx="20" class="chip"/><text x="95" y="187">Python · PyTorch · TensorFlow</text>
<rect x="315" y="160" width="220" height="42" rx="20" class="chip"/><text x="335" y="187">scikit-learn · Keras · NumPy</text>
<rect x="555" y="160" width="180" height="42" rx="20" class="chipr"/><text x="575" y="187">Pandas · FastAPI</text>
<rect x="755" y="160" width="170" height="42" rx="20" class="chip"/><text x="775" y="187">JavaScript · TypeScript</text>
<rect x="945" y="160" width="180" height="42" rx="20" class="chipr"/><text x="965" y="187">React · Next JS</text>
<rect x="125" y="475" width="210" height="42" rx="20" class="chip"/><text x="145" y="502">NodeJS · Express.js</text>
<rect x="355" y="475" width="230" height="42" rx="20" class="chip"/><text x="375" y="502">MongoDB · MySQL · PostgreSQL</text>
<rect x="605" y="475" width="190" height="42" rx="20" class="chipr"/><text x="625" y="502">SQLite · Supabase</text>
<rect x="815" y="475" width="220" height="42" rx="20" class="chip"/><text x="835" y="502">Azure · Google Cloud</text>
</g>
<text x="50" y="565" class="m" font-size="14">HTML5 · CSS3 · Bootstrap · Vite · Firebase · Netlify · Vercel · Render · Docker · Kubernetes · GitHub Actions · Git · GitHub · Postman · Notion · Figma · Canva</text>
</svg>